<svg width="78" height="77" viewBox="0 0 78 77" fill="none" xmlns="http://www.w3.org/2000/svg">
<g filter="url(#filter0_d_20760_370)">
<path d="M55.6738 7.83301C61.7447 7.83306 65.6935 14.2223 62.9785 19.6523L46.3047 53C43.295 59.0191 34.705 59.0191 31.6953 53L15.0215 19.6523C12.3065 14.2223 16.2553 7.83305 22.3262 7.83301H55.6738Z" fill="url(#paint0_linear_20760_370)" stroke="url(#paint1_linear_20760_370)" stroke-width="2.33333"/>
<mask id="mask0_20760_370" style="mask-type:alpha" maskUnits="userSpaceOnUse" x="15" y="9" width="48" height="48">
<path d="M32.739 52.478L16.0652 19.1305C13.7381 14.4762 17.1226 9 22.3262 9H55.6738C60.8774 9 64.2619 14.4762 61.9347 19.1305L45.261 52.478C42.6813 57.6374 35.3187 57.6374 32.739 52.478Z" fill="url(#paint2_linear_20760_370)"/>
</mask>
<g mask="url(#mask0_20760_370)">
<rect x="39" y="9" width="24" height="49" fill="url(#paint3_linear_20760_370)"/>
</g>
</g>
<defs>
<filter id="filter0_d_20760_370" x="0.980865" y="0.666626" width="76.0383" height="76.0143" filterUnits="userSpaceOnUse" color-interpolation-filters="sRGB">
<feFlood flood-opacity="0" result="BackgroundImageFix"/>
<feColorMatrix in="SourceAlpha" type="matrix" values="0 0 0 0 0 0 0 0 0 0 0 0 0 0 0 0 0 0 127 0" result="hardAlpha"/>
<feOffset dy="6"/>
<feGaussianBlur stdDeviation="6"/>
<feComposite in2="hardAlpha" operator="out"/>
<feColorMatrix type="matrix" values="0 0 0 0 0 0 0 0 0 0 0 0 0 0 0 0 0 0 0.32 0"/>
<feBlend mode="normal" in2="BackgroundImageFix" result="effect1_dropShadow_20760_370"/>
<feBlend mode="normal" in="SourceGraphic" in2="effect1_dropShadow_20760_370" result="shape"/>
</filter>
<linearGradient id="paint0_linear_20760_370" x1="39" y1="9" x2="46.0339" y2="56.9686" gradientUnits="userSpaceOnUse">
<stop stop-color="#FF46DA"/>
<stop offset="1" stop-color="#E000B4"/>
</linearGradient>
<linearGradient id="paint1_linear_20760_370" x1="39" y1="9" x2="39" y2="65" gradientUnits="userSpaceOnUse">
<stop stop-color="#FFF4FD"/>
<stop offset="1" stop-color="#FF96EA"/>
</linearGradient>
<linearGradient id="paint2_linear_20760_370" x1="39" y1="9" x2="39" y2="58.5833" gradientUnits="userSpaceOnUse">
<stop stop-color="#912591"/>
<stop offset="1" stop-color="#F73FF7"/>
</linearGradient>
<linearGradient id="paint3_linear_20760_370" x1="51" y1="9" x2="51" y2="58" gradientUnits="userSpaceOnUse">
<stop stop-color="#CF00A7"/>
<stop offset="1" stop-color="#EB1AC1"/>
</linearGradient>
</defs>
</svg>
