<svg width="45" height="48" viewBox="0 0 45 48" fill="none" xmlns="http://www.w3.org/2000/svg">
<mask id="mask0_20700_899" style="mask-type:luminance" maskUnits="userSpaceOnUse" x="0" y="0" width="45" height="48">
<path d="M44.167 0.157719L0.169952 0.157715L0.169948 47.4362L44.167 47.4362L44.167 0.157719Z" fill="white"/>
</mask>
<g mask="url(#mask0_20700_899)">
<path fill-rule="evenodd" clip-rule="evenodd" d="M22.1742 19.1042C21.8046 17.7406 22.2283 17.4921 19.2432 14.6216C18.7016 14.1023 16.9844 13.051 16.0636 12.3947C15.4328 11.9487 16.7008 11.9232 17.6375 11.1331C19.326 9.70899 21.0623 6.13762 19.9154 3.5698C18.88 1.25048 18.0038 -0.272371 20.3423 1.35243C23.3657 3.45511 23.8149 6.69515 24.1239 9.17695C24.691 13.7232 23.2605 17.6259 23.079 18.7569C22.891 19.9357 22.9356 21.9077 22.1742 19.1042Z" fill="#FF6659"/>
</g>
<mask id="mask1_20700_899" style="mask-type:luminance" maskUnits="userSpaceOnUse" x="0" y="0" width="45" height="48">
<path d="M44.167 0.157719L0.169952 0.157715L0.169948 47.4362L44.167 47.4362L44.167 0.157719Z" fill="white"/>
</mask>
<g mask="url(#mask1_20700_899)">
<path d="M22.1742 19.1042C21.8046 17.7406 22.2283 17.4921 19.2432 14.6216C18.7016 14.1023 16.9844 13.051 16.0636 12.3947C15.4328 11.9487 16.7008 11.9232 17.6375 11.1331C19.326 9.70899 21.0623 6.13762 19.9154 3.5698C18.88 1.25048 18.0038 -0.272371 20.3423 1.35243C23.3657 3.45511 23.8149 6.69515 24.1239 9.17695C24.691 13.7232 23.2606 17.6259 23.079 18.7569C22.891 19.9357 22.9356 21.9077 22.1742 19.1042Z" stroke="#13161E" stroke-width="0.382306" stroke-miterlimit="1.5" stroke-linecap="round" stroke-linejoin="round"/>
</g>
<mask id="mask2_20700_899" style="mask-type:luminance" maskUnits="userSpaceOnUse" x="0" y="0" width="45" height="48">
<path d="M44.167 0.157719L0.169952 0.157715L0.169948 47.4362L44.167 47.4362L44.167 0.157719Z" fill="white"/>
</mask>
<g mask="url(#mask2_20700_899)">
<path fill-rule="evenodd" clip-rule="evenodd" d="M20.3776 7.74597C20.2023 7.54844 20.2597 8.06774 19.4983 9.46953C18.6094 11.1071 16.9464 11.6423 17.7365 11.929C17.9308 11.9991 17.9595 12.0342 18.1379 12.0947C19.4154 12.5407 20.1832 13.557 20.7503 14.9046C21.3174 16.2523 22.1011 18.9539 22.1011 18.9539C22.1011 18.9539 23.2767 18.7659 23.1811 17.361C23.0856 15.956 23.0155 10.7248 20.3776 7.74597Z" fill="#E64F42"/>
</g>
<mask id="mask3_20700_899" style="mask-type:luminance" maskUnits="userSpaceOnUse" x="0" y="0" width="45" height="48">
<path d="M44.167 0.157719L0.169952 0.157715L0.169948 47.4362L44.167 47.4362L44.167 0.157719Z" fill="white"/>
</mask>
<g mask="url(#mask3_20700_899)">
<path fill-rule="evenodd" clip-rule="evenodd" d="M22.1844 18.263C21.9964 17.2148 21.8722 14.4527 20.8973 13.481C20.155 12.7419 19.5114 11.4866 18.5525 10.8303C18.3964 10.722 17.8675 11.3751 17.294 11.7319C16.762 12.0601 16.1089 12.1684 16.3128 12.2321C17.7751 12.7068 19.7758 14.2392 20.7571 15.4276C21.5472 16.3801 21.7989 17.4506 22.092 18.8364C22.3883 20.2255 22.3691 19.3143 22.1844 18.263Z" fill="#B84940"/>
</g>
<mask id="mask4_20700_899" style="mask-type:luminance" maskUnits="userSpaceOnUse" x="0" y="0" width="45" height="48">
<path d="M44.167 0.157719L0.169952 0.157715L0.169948 47.4362L44.167 47.4362L44.167 0.157719Z" fill="white"/>
</mask>
<g mask="url(#mask4_20700_899)">
<path d="M18.2688 10.661C18.2688 10.661 19.4475 11.483 20.5753 12.9963C21.8688 14.7326 22.0313 16.5485 22.2447 18.2466" stroke="#13161E" stroke-width="0.382306" stroke-miterlimit="1.5" stroke-linecap="round" stroke-linejoin="round"/>
</g>
<mask id="mask5_20700_899" style="mask-type:luminance" maskUnits="userSpaceOnUse" x="0" y="0" width="45" height="48">
<path d="M44.167 0.157719L0.169952 0.157715L0.169948 47.4362L44.167 47.4362L44.167 0.157719Z" fill="white"/>
</mask>
<g mask="url(#mask5_20700_899)">
<path d="M11.1221 22.8156C12.1225 23.2712 13.2152 23.0195 13.5689 22.2517C13.9193 21.4839 13.3937 20.4899 12.3965 20.0311C11.3961 19.5756 10.3033 19.8272 9.94972 20.595C9.59608 21.3628 10.1218 22.3568 11.1221 22.8156Z" fill="#D9FFFD"/>
</g>
<mask id="mask6_20700_899" style="mask-type:luminance" maskUnits="userSpaceOnUse" x="0" y="0" width="45" height="48">
<path d="M44.167 0.157719L0.169952 0.157715L0.169948 47.4362L44.167 47.4362L44.167 0.157719Z" fill="white"/>
</mask>
<g mask="url(#mask6_20700_899)">
<path d="M11.1221 22.8156C12.1225 23.2712 13.2152 23.0195 13.5689 22.2517C13.9193 21.4839 13.3937 20.4899 12.3965 20.0311C11.3961 19.5756 10.3033 19.8272 9.94972 20.595C9.59608 21.3628 10.1218 22.3568 11.1221 22.8156Z" stroke="#13161E" stroke-width="0.379534" stroke-miterlimit="1.5" stroke-linecap="round" stroke-linejoin="round"/>
</g>
<mask id="mask7_20700_899" style="mask-type:luminance" maskUnits="userSpaceOnUse" x="0" y="0" width="45" height="48">
<path d="M44.167 0.157719L0.169952 0.157715L0.169948 47.4362L44.167 47.4362L44.167 0.157719Z" fill="white"/>
</mask>
<g mask="url(#mask7_20700_899)">
<path d="M13.5442 22.497C13.8564 21.9459 13.5601 21.1876 12.8847 20.8085C12.2093 20.4262 11.4096 20.5664 11.0974 21.1175C10.7852 21.6687 11.0815 22.4269 11.7569 22.8061C12.4323 23.1884 13.232 23.0482 13.5442 22.497Z" fill="#ACC0BF"/>
</g>
<mask id="mask8_20700_899" style="mask-type:luminance" maskUnits="userSpaceOnUse" x="0" y="0" width="45" height="48">
<path d="M44.167 0.157719L0.169952 0.157715L0.169948 47.4362L44.167 47.4362L44.167 0.157719Z" fill="white"/>
</mask>
<g mask="url(#mask8_20700_899)">
<path d="M15.1629 20.8753C15.7523 20.4038 15.7587 19.4321 15.1756 18.6994C14.5926 17.9698 13.6432 17.7563 13.0507 18.2278C12.4581 18.6994 12.4549 19.671 13.0379 20.4038C13.6209 21.1334 14.5703 21.3468 15.1629 20.8753Z" fill="#D9FFFD"/>
</g>
<mask id="mask9_20700_899" style="mask-type:luminance" maskUnits="userSpaceOnUse" x="0" y="0" width="45" height="48">
<path d="M44.167 0.157719L0.169952 0.157715L0.169948 47.4362L44.167 47.4362L44.167 0.157719Z" fill="white"/>
</mask>
<g mask="url(#mask9_20700_899)">
<path d="M15.1629 20.8753C15.7523 20.4038 15.7587 19.4321 15.1756 18.6994C14.5926 17.9698 13.6432 17.7563 13.0507 18.2278C12.4581 18.6994 12.4549 19.671 13.0379 20.4038C13.6209 21.1334 14.5703 21.3468 15.1629 20.8753Z" stroke="#13161E" stroke-width="0.382306" stroke-miterlimit="1.5" stroke-linecap="round" stroke-linejoin="round"/>
</g>
<mask id="mask10_20700_899" style="mask-type:luminance" maskUnits="userSpaceOnUse" x="0" y="0" width="45" height="48">
<path d="M44.167 0.157719L0.169952 0.157715L0.169948 47.4362L44.167 47.4362L44.167 0.157719Z" fill="white"/>
</mask>
<g mask="url(#mask10_20700_899)">
<path d="M15.1531 20.8808C15.6055 20.5176 15.5896 19.7403 15.1117 19.1413C14.6338 18.5424 13.8819 18.3512 13.4263 18.7112C12.974 19.0744 12.9899 19.8518 13.4678 20.4507C13.9456 21.0497 14.7007 21.2408 15.1531 20.8808Z" fill="#ACC0BF"/>
</g>
<mask id="mask11_20700_899" style="mask-type:luminance" maskUnits="userSpaceOnUse" x="0" y="0" width="45" height="48">
<path d="M44.167 0.157719L0.169952 0.157715L0.169948 47.4362L44.167 47.4362L44.167 0.157719Z" fill="white"/>
</mask>
<g mask="url(#mask11_20700_899)">
<path fill-rule="evenodd" clip-rule="evenodd" d="M33.7683 34.2403C34.3067 37.7735 35.5014 40.0355 36.282 41.3544C37.0625 42.6734 37.4703 42.7753 37.8462 42.6065C38.2254 42.4376 37.859 40.7873 37.4926 38.6082C37.1262 36.4322 37.1199 34.868 37.0466 33.8453C36.9765 32.8194 33.2618 30.9111 33.7683 34.2403Z" fill="#E64F42"/>
</g>
<mask id="mask12_20700_899" style="mask-type:luminance" maskUnits="userSpaceOnUse" x="0" y="0" width="45" height="48">
<path d="M44.167 0.157719L0.169952 0.157715L0.169948 47.4362L44.167 47.4362L44.167 0.157719Z" fill="white"/>
</mask>
<g mask="url(#mask12_20700_899)">
<path d="M33.7683 34.2403C34.3067 37.7735 35.5014 40.0355 36.282 41.3544C37.0625 42.6734 37.4703 42.7753 37.8462 42.6065C38.2254 42.4376 37.859 40.7873 37.4926 38.6082C37.1262 36.4322 37.1199 34.868 37.0466 33.8453C36.9765 32.8194 33.2618 30.9111 33.7683 34.2403Z" stroke="#13161E" stroke-width="0.382306" stroke-miterlimit="1.5" stroke-linecap="round" stroke-linejoin="round"/>
</g>
<mask id="mask13_20700_899" style="mask-type:luminance" maskUnits="userSpaceOnUse" x="0" y="0" width="45" height="48">
<path d="M44.167 0.157719L0.169952 0.157715L0.169948 47.4362L44.167 47.4362L44.167 0.157719Z" fill="white"/>
</mask>
<g mask="url(#mask13_20700_899)">
<path fill-rule="evenodd" clip-rule="evenodd" d="M36.2024 36.7096C36.6899 39.1245 38.4039 43.6963 37.0116 41.9313C35.8169 40.418 35.2467 38.8123 34.9822 38.0827C34.7178 37.3532 35.715 34.2979 36.2024 36.7096Z" fill="#B84940"/>
</g>
<mask id="mask14_20700_899" style="mask-type:luminance" maskUnits="userSpaceOnUse" x="0" y="0" width="45" height="48">
<path d="M44.167 0.157719L0.169952 0.157715L0.169948 47.4362L44.167 47.4362L44.167 0.157719Z" fill="white"/>
</mask>
<g mask="url(#mask14_20700_899)">
<path fill-rule="evenodd" clip-rule="evenodd" d="M29.6154 30.3434C30.4979 32.6468 36.9939 33.8096 38.4753 32.6532C39.9599 31.4967 40.4951 30.9009 40.8998 30.1873C41.3044 29.4737 43.4007 26.1922 41.2534 25.9373C39.1093 25.6825 28.7329 28.0368 29.6154 30.3434Z" fill="white"/>
</g>
<mask id="mask15_20700_899" style="mask-type:luminance" maskUnits="userSpaceOnUse" x="0" y="0" width="45" height="48">
<path d="M44.167 0.157719L0.169952 0.157715L0.169948 47.4362L44.167 47.4362L44.167 0.157719Z" fill="white"/>
</mask>
<g mask="url(#mask15_20700_899)">
<path d="M29.6154 30.3434C30.4979 32.6468 36.9939 33.8096 38.4753 32.6532C39.9599 31.4967 40.4951 30.9009 40.8998 30.1873C41.3044 29.4737 43.4007 26.1922 41.2534 25.9373C39.1093 25.6825 28.7329 28.0368 29.6154 30.3434Z" stroke="#13161E" stroke-width="0.382306" stroke-miterlimit="1.5" stroke-linecap="round" stroke-linejoin="round"/>
</g>
<path d="M25.6331 3.55103L26.2607 15.6765" stroke="#13161E" stroke-width="0.382306" stroke-miterlimit="1.5" stroke-linecap="round" stroke-linejoin="round"/>
<mask id="mask16_20700_899" style="mask-type:luminance" maskUnits="userSpaceOnUse" x="0" y="0" width="45" height="48">
<path d="M44.1588 0.159184L0.161743 0.15918L0.161739 47.4376L44.1588 47.4376L44.1588 0.159184Z" fill="white"/>
</mask>
<g mask="url(#mask16_20700_899)">
<path d="M26.2624 15.5562C27.0461 15.5562 27.6833 14.919 27.6833 14.1353C27.6833 13.3515 27.0461 12.7144 26.2624 12.7144C25.4786 12.7144 24.8415 13.3515 24.8415 14.1353C24.8415 14.9222 25.4755 15.5562 26.2624 15.5562Z" fill="#D9B879"/>
</g>
<mask id="mask17_20700_899" style="mask-type:luminance" maskUnits="userSpaceOnUse" x="-4" y="-6" width="60" height="61">
<path d="M37.455 -5.6278L-3.19385 11.2098L14.8996 54.8904L55.5484 38.0527L37.455 -5.6278Z" fill="white"/>
</mask>
<g mask="url(#mask17_20700_899)">
<path d="M26.8106 15.4505C27.5356 15.1502 27.8799 14.319 27.5796 13.594C27.2793 12.869 26.4481 12.5247 25.7231 12.825C24.998 13.1253 24.6537 13.9565 24.9541 14.6815C25.2544 15.4066 26.0856 15.7509 26.8106 15.4505Z" stroke="#13161E" stroke-width="0.382306" stroke-miterlimit="1.5" stroke-linecap="round" stroke-linejoin="round"/>
</g>
<mask id="mask18_20700_899" style="mask-type:luminance" maskUnits="userSpaceOnUse" x="0" y="0" width="45" height="48">
<path d="M44.167 0.157719L0.169952 0.157715L0.169948 47.4362L44.167 47.4362L44.167 0.157719Z" fill="white"/>
</mask>
<g mask="url(#mask18_20700_899)">
<path d="M26.5013 14.9529C27.0238 14.9529 27.4475 14.5228 27.4475 13.994C27.4475 13.4651 27.0238 13.035 26.5013 13.035C25.9788 13.035 25.5551 13.4651 25.5551 13.994C25.5583 14.5228 25.982 14.9529 26.5013 14.9529Z" fill="#FFDFA0"/>
</g>
<mask id="mask19_20700_899" style="mask-type:luminance" maskUnits="userSpaceOnUse" x="0" y="0" width="45" height="48">
<path d="M44.167 0.157719L0.169952 0.157715L0.169948 47.4362L44.167 47.4362L44.167 0.157719Z" fill="white"/>
</mask>
<g mask="url(#mask19_20700_899)">
<path fill-rule="evenodd" clip-rule="evenodd" d="M21.6758 38.3445C18.3019 38.2266 15.8392 36.5221 11.7103 36.6305C11.0158 36.6496 8.62321 37.3409 8.13895 39.9119C7.56231 42.9576 7.84904 45.9301 6.92513 46.6915C6.57469 46.9814 5.53609 45.7102 5.03272 44.0918C4.59625 42.6932 4.63448 41.6546 4.35413 41.9031C2.38207 43.649 0.843286 44.5952 0.429122 43.8592C0.030887 43.1488 1.49958 40.0202 3.03199 38.0896C4.60581 36.108 6.21468 35.5791 6.65752 34.1837C8.68692 27.7673 12.2615 22.1825 17.8846 18.9966C19.8853 17.8624 22.8354 16.5435 25.5657 15.6291C29.6022 14.2783 37.86 12.8033 42.0112 18.7163C45.6463 23.8965 43.5596 27.2034 41.1765 30.0994C41.1765 30.0994 38.9815 29.4336 35.5821 30.0484C33.1832 30.4817 30.4401 32.3773 30.4401 32.3773C30.4401 32.3773 34.4575 31.1316 36.8756 31.0138C39.5135 30.8863 40.8356 30.9915 41.6512 31.2877C42.435 31.5745 42.6484 32.0332 42.3043 32.6895C41.2434 34.7317 38.5036 35.6747 36.0536 36.5954C32.3166 38.0036 31.0582 38.6726 21.6758 38.3445Z" fill="#E64F42"/>
</g>
<mask id="mask20_20700_899" style="mask-type:luminance" maskUnits="userSpaceOnUse" x="0" y="0" width="45" height="48">
<path d="M44.167 0.157719L0.169952 0.157715L0.169948 47.4362L44.167 47.4362L44.167 0.157719Z" fill="white"/>
</mask>
<g mask="url(#mask20_20700_899)">
<path d="M21.6758 38.3445C18.3019 38.2266 15.8392 36.5221 11.7103 36.6305C11.0158 36.6496 8.62321 37.3409 8.13895 39.9119C7.56231 42.9576 7.84904 45.9301 6.92513 46.6915C6.57468 46.9814 5.53609 45.7102 5.03272 44.0918C4.59625 42.6932 4.63448 41.6546 4.35413 41.9031C2.38207 43.649 0.843286 44.5952 0.429122 43.8592C0.030887 43.1488 1.49958 40.0202 3.03199 38.0896C4.60581 36.108 6.21468 35.5791 6.65752 34.1837C8.68692 27.7673 12.2615 22.1825 17.8846 18.9966C19.8853 17.8624 22.8354 16.5435 25.5657 15.6291C29.6022 14.2783 37.86 12.8033 42.0112 18.7163C45.6463 23.8965 43.5596 27.2034 41.1765 30.0994C41.1765 30.0994 38.9815 29.4336 35.5821 30.0484C33.1832 30.4817 30.4401 32.3773 30.4401 32.3773C30.4401 32.3773 34.4575 31.1316 36.8756 31.0138C39.5135 30.8863 40.8356 30.9915 41.6512 31.2877C42.435 31.5745 42.6484 32.0332 42.3043 32.6895C41.2434 34.7317 38.5036 35.6747 36.0536 36.5954C32.3166 38.0036 31.0582 38.6726 21.6758 38.3445Z" stroke="#13161E" stroke-width="0.382306" stroke-miterlimit="1.5" stroke-linecap="round" stroke-linejoin="round"/>
</g>
<mask id="mask21_20700_899" style="mask-type:luminance" maskUnits="userSpaceOnUse" x="0" y="0" width="45" height="48">
<path d="M44.167 0.157719L0.169952 0.157715L0.169948 47.4362L44.167 47.4362L44.167 0.157719Z" fill="white"/>
</mask>
<g mask="url(#mask21_20700_899)">
<path fill-rule="evenodd" clip-rule="evenodd" d="M42.176 26.3139C40.8188 25.0332 39.8216 25.6927 35.8871 26.9479C31.3568 28.3911 29.6619 29.2577 24.8353 28.4007C18.0047 27.1868 16.8546 29.4775 14.9399 30.7996C12.1109 32.7558 5.47785 35.0655 2.77941 41.0263C2.07215 42.5874 2.61056 42.1382 3.47075 41.7431C3.82438 41.5806 4.29589 41.1569 4.75784 41.3067C5.30581 41.4819 5.14333 42.5778 5.38546 43.5559C5.70405 44.8398 6.33485 45.8434 6.56424 45.8115C6.80636 45.7796 7.01663 41.7304 7.40531 39.9081C8.14125 36.4323 11.2061 35.7505 12.8213 36.0404C16.8164 36.7572 19.0274 37.6047 22.0699 37.7544C26.6162 37.9774 28.3971 38.1367 31.6913 37.0949C34.9823 36.0531 38.3052 35.5084 39.0347 35.1324C39.7643 34.7565 40.2677 34.7023 41.0609 33.9059C41.8542 33.1062 42.3385 31.9147 41.4624 31.6949C39.2195 31.1246 36.6772 31.0226 33.3575 31.8892C32.4336 32.1313 31.2771 32.4913 30.6081 32.743C30.0314 32.9597 29.6173 32.6634 30.2927 32.1313C35.0364 28.3815 40.8921 29.7164 40.8921 29.7164C40.8921 29.7164 43.1477 27.2283 42.176 26.3139Z" fill="#B84940"/>
</g>
<mask id="mask22_20700_899" style="mask-type:luminance" maskUnits="userSpaceOnUse" x="0" y="0" width="45" height="48">
<path d="M44.167 0.157719L0.169952 0.157715L0.169948 47.4362L44.167 47.4362L44.167 0.157719Z" fill="white"/>
</mask>
<g mask="url(#mask22_20700_899)">
<path fill-rule="evenodd" clip-rule="evenodd" d="M30.6047 30.9301C30.6047 30.9301 28.9289 30.825 28.0433 30.4235C26.256 29.6079 25.0326 28.203 24.4305 26.7789C23.7328 25.1318 23.3568 23.5994 22.1111 23.5293C20.8687 23.4592 18.6099 25.2975 17.2272 26.7311C15.6343 28.3814 11.5914 31.2455 11.3269 31.3347C11.174 31.3857 11.5372 32.0005 14.2261 30.4904C16.1026 29.4391 17.2877 28.0341 18.441 27.1612C19.9001 26.0557 21.2573 24.501 22.5572 25.9219C23.5862 27.0465 23.3823 28.0341 24.9721 29.5156C26.5618 30.997 27.6227 31.3793 29.8146 31.5035L30.6047 30.9301Z" fill="#FFDFA0"/>
</g>
<mask id="mask23_20700_899" style="mask-type:luminance" maskUnits="userSpaceOnUse" x="0" y="0" width="45" height="48">
<path d="M44.167 0.157719L0.169952 0.157715L0.169948 47.4362L44.167 47.4362L44.167 0.157719Z" fill="white"/>
</mask>
<g mask="url(#mask23_20700_899)">
<path fill-rule="evenodd" clip-rule="evenodd" d="M24.1352 16.8677C21.7872 18.3841 20.7168 23.5102 23.5745 22.0033C25.3044 21.0921 27.2574 19.6808 31.1091 21.3502C34.9608 23.0196 37.3407 23.2585 39.4848 22.4461C41.6289 21.6369 42.2246 18.7951 40.2781 17.1512C38.3283 15.5041 35.633 14.6216 32.5842 14.6949C29.4078 14.7714 26.4896 15.3448 24.1352 16.8677Z" fill="#FF6659"/>
</g>
<mask id="mask24_20700_899" style="mask-type:luminance" maskUnits="userSpaceOnUse" x="0" y="0" width="45" height="48">
<path d="M44.167 0.157719L0.169952 0.157715L0.169948 47.4362L44.167 47.4362L44.167 0.157719Z" fill="white"/>
</mask>
<g mask="url(#mask24_20700_899)">
<path fill-rule="evenodd" clip-rule="evenodd" d="M26.8 23.5228C27.5806 23.5961 28.2209 23.5228 28.2209 23.5228L29.2882 23.5228C29.2882 23.5228 29.7565 26.183 27.7463 26.5781C26.5356 26.817 25.239 26.0556 24.9395 24.6825C24.7993 24.0358 24.9905 23.2966 24.9905 23.2966C24.9905 23.2966 25.6053 23.4113 26.8 23.5228Z" fill="#13161E"/>
</g>
<mask id="mask25_20700_899" style="mask-type:luminance" maskUnits="userSpaceOnUse" x="0" y="0" width="45" height="48">
<path d="M44.167 0.157719L0.169952 0.157715L0.169948 47.4362L44.167 47.4362L44.167 0.157719Z" fill="white"/>
</mask>
<g mask="url(#mask25_20700_899)">
<path d="M26.8 23.5228C27.5806 23.5961 28.2209 23.5228 28.2209 23.5228L29.2882 23.5228C29.2882 23.5228 29.7565 26.183 27.7463 26.5781C26.5356 26.817 25.239 26.0556 24.9395 24.6825C24.7993 24.0358 24.9905 23.2966 24.9905 23.2966C24.9905 23.2966 25.6053 23.4113 26.8 23.5228Z" stroke="#13161E" stroke-width="0.382306" stroke-miterlimit="1.5" stroke-linecap="round" stroke-linejoin="round"/>
</g>
<mask id="mask26_20700_899" style="mask-type:luminance" maskUnits="userSpaceOnUse" x="0" y="0" width="45" height="48">
<path d="M44.167 0.157719L0.169952 0.157715L0.169948 47.4362L44.167 47.4362L44.167 0.157719Z" fill="white"/>
</mask>
<g mask="url(#mask26_20700_899)">
<path d="M28.4294 25.149C28.8404 25.0407 29.0793 24.5979 28.9615 24.155C28.8436 23.7122 28.4199 23.4414 28.0089 23.5497C27.5979 23.6581 27.359 24.1009 27.4768 24.5437C27.5915 24.9834 28.0184 25.2542 28.4294 25.149Z" fill="white"/>
</g>
<mask id="mask27_20700_899" style="mask-type:luminance" maskUnits="userSpaceOnUse" x="0" y="0" width="45" height="48">
<path d="M44.167 0.157719L0.169952 0.157715L0.169948 47.4362L44.167 47.4362L44.167 0.157719Z" fill="white"/>
</mask>
<g mask="url(#mask27_20700_899)">
<path d="M23.7639 22.7044C25.5703 23.9341 30.0337 23.418 30.0337 23.418L27.7049 20.7546" stroke="#13161E" stroke-width="0.382306" stroke-miterlimit="1.5" stroke-linecap="round" stroke-linejoin="round"/>
</g>
<mask id="mask28_20700_899" style="mask-type:luminance" maskUnits="userSpaceOnUse" x="0" y="0" width="45" height="48">
<path d="M44.167 0.157719L0.169952 0.157715L0.169948 47.4362L44.167 47.4362L44.167 0.157719Z" fill="white"/>
</mask>
<g mask="url(#mask28_20700_899)">
<path fill-rule="evenodd" clip-rule="evenodd" d="M37.2941 35.571C37.5649 36.1636 37.8675 40.0058 36.5932 42.4015C35.5036 44.4501 33.4647 46.849 30.0335 47.1995C28.3258 47.3747 26.0893 47.072 20.9856 44.9407C16.9618 43.2585 12.3741 47.2696 12.4793 46.9924C13.5433 44.2016 14.5756 42.169 16.7547 40.4199C18.4145 39.0882 20.0776 38.8588 21.9095 39.0914C25.2483 39.5151 29.0968 38.7442 28.8802 37.4889C28.8133 37.0843 36.4052 33.6244 37.2941 35.571Z" fill="#FD8917"/>
</g>
<mask id="mask29_20700_899" style="mask-type:luminance" maskUnits="userSpaceOnUse" x="0" y="0" width="45" height="48">
<path d="M44.167 0.157719L0.169952 0.157715L0.169948 47.4362L44.167 47.4362L44.167 0.157719Z" fill="white"/>
</mask>
<g mask="url(#mask29_20700_899)">
<path d="M37.2941 35.571C37.5649 36.1636 37.8675 40.0058 36.5932 42.4015C35.5036 44.4501 33.4646 46.849 30.0335 47.1995C28.3258 47.3747 26.0893 47.072 20.9856 44.9407C16.9618 43.2585 12.3741 47.2696 12.4793 46.9924C13.5433 44.2016 14.5756 42.169 16.7547 40.4199C18.4145 39.0882 20.0776 38.8588 21.9095 39.0914C25.2483 39.5151 29.0968 38.7442 28.8802 37.4889C28.8133 37.0843 36.4052 33.6244 37.2941 35.571Z" stroke="#13161E" stroke-width="0.382306" stroke-miterlimit="1.5" stroke-linecap="round" stroke-linejoin="round"/>
</g>
<mask id="mask30_20700_899" style="mask-type:luminance" maskUnits="userSpaceOnUse" x="0" y="0" width="45" height="48">
<path d="M44.167 0.157719L0.169952 0.157715L0.169948 47.4362L44.167 47.4362L44.167 0.157719Z" fill="white"/>
</mask>
<g mask="url(#mask30_20700_899)">
<path fill-rule="evenodd" clip-rule="evenodd" d="M35.5664 35.7129C35.7863 37.0287 35.8181 39.7717 34.77 41.4252C33.6167 43.238 31.3866 46.7615 25.464 44.6557C20.3125 42.827 21.3001 42.8843 19.9015 42.3268C18.6845 41.8425 21.4976 42.7664 28.4587 40.4312C29.8 39.982 31.0489 37.3759 30.7048 36.675C30.3575 35.9773 35.3466 34.3971 35.5664 35.7129Z" fill="#FEE767"/>
</g>
<mask id="mask31_20700_899" style="mask-type:luminance" maskUnits="userSpaceOnUse" x="0" y="0" width="45" height="48">
<path d="M44.167 0.157719L0.169952 0.157715L0.169948 47.4362L44.167 47.4362L44.167 0.157719Z" fill="white"/>
</mask>
<g mask="url(#mask31_20700_899)">
<path fill-rule="evenodd" clip-rule="evenodd" d="M25.7898 39.0382C28.3163 36.6425 31.8016 35.1323 35.0193 34.5971C38.2339 34.0619 40.0148 34.0491 40.4576 34.3327C40.8973 34.6162 39.3904 35.9033 38.8583 35.7345C38.3263 35.5624 36.2172 35.5274 34.6339 35.881C33.0505 36.2315 31.0243 36.7986 29.1191 37.5664C27.2139 38.331 24.9042 39.8761 25.7898 39.0382Z" fill="#E5DFDC"/>
</g>
<mask id="mask32_20700_899" style="mask-type:luminance" maskUnits="userSpaceOnUse" x="0" y="0" width="45" height="48">
<path d="M44.167 0.157719L0.169952 0.157715L0.169948 47.4362L44.167 47.4362L44.167 0.157719Z" fill="white"/>
</mask>
<g mask="url(#mask32_20700_899)">
<path d="M25.7898 39.0382C28.3163 36.6425 31.8016 35.1323 35.0193 34.5971C38.2339 34.0619 40.0148 34.0491 40.4576 34.3327C40.8973 34.6162 39.3904 35.9033 38.8583 35.7345C38.3263 35.5624 36.2172 35.5274 34.6339 35.881C33.0505 36.2315 31.0243 36.7986 29.1191 37.5664C27.2139 38.331 24.9042 39.8761 25.7898 39.0382Z" stroke="#13161E" stroke-width="0.382306" stroke-miterlimit="1.5" stroke-linecap="round" stroke-linejoin="round"/>
</g>
<mask id="mask33_20700_899" style="mask-type:luminance" maskUnits="userSpaceOnUse" x="0" y="0" width="45" height="48">
<path d="M44.167 0.157719L0.169952 0.157715L0.169948 47.4362L44.167 47.4362L44.167 0.157719Z" fill="white"/>
</mask>
<g mask="url(#mask33_20700_899)">
<path fill-rule="evenodd" clip-rule="evenodd" d="M28.1395 37.636C28.1395 37.636 29.2673 37.0498 30.5384 36.556C31.8128 36.0622 33.2496 35.5938 34.696 35.3135C36.1424 35.0331 38.5987 35.0331 39.4748 35.1128C40.0005 35.1606 40.1853 34.4756 40.1853 34.4756C39.8826 34.2367 37.4518 34.4183 35.4288 34.74C33.4248 35.0554 31.7331 35.6767 31.3317 35.8328C30.5512 36.1354 29.965 36.4126 29.1366 36.8586C28.5218 37.19 28.1395 37.636 28.1395 37.636Z" fill="#BAB0AC"/>
</g>
<mask id="mask34_20700_899" style="mask-type:luminance" maskUnits="userSpaceOnUse" x="0" y="0" width="45" height="48">
<path d="M44.167 0.157719L0.169952 0.157715L0.169948 47.4362L44.167 47.4362L44.167 0.157719Z" fill="white"/>
</mask>
<g mask="url(#mask34_20700_899)">
<path fill-rule="evenodd" clip-rule="evenodd" d="M24.2958 38.433C22.5244 37.216 20.4377 35.5625 19.0072 32.9756C17.5768 30.3855 16.946 26.8237 16.9077 25.4665C16.8695 24.1093 17.0352 23.3957 17.0352 23.3957L17.8603 23.3861C17.8603 23.3861 17.4716 24.5808 18.0292 27.8527C18.5867 31.1246 19.5743 32.7685 20.871 34.3997C22.0274 35.8556 22.6869 36.6553 24.7131 38.0698C26.7425 39.4812 25.9078 39.5385 24.2958 38.433Z" fill="#D9FFFD"/>
</g>
<mask id="mask35_20700_899" style="mask-type:luminance" maskUnits="userSpaceOnUse" x="0" y="0" width="45" height="48">
<path d="M44.167 0.157719L0.169952 0.157715L0.169948 47.4362L44.167 47.4362L44.167 0.157719Z" fill="white"/>
</mask>
<g mask="url(#mask35_20700_899)">
<path d="M24.2958 38.433C22.5244 37.216 20.4377 35.5625 19.0072 32.9756C17.5768 30.3855 16.946 26.8237 16.9077 25.4665C16.8695 24.1093 17.0352 23.3957 17.0352 23.3957L17.8603 23.3861C17.8603 23.3861 17.4716 24.5808 18.0292 27.8527C18.5867 31.1246 19.5743 32.7685 20.871 34.3997C22.0274 35.8556 22.6869 36.6553 24.7131 38.0698C26.7425 39.4812 25.9078 39.5385 24.2958 38.433Z" stroke="#13161E" stroke-width="0.382306" stroke-miterlimit="1.5" stroke-linecap="round" stroke-linejoin="round"/>
</g>
<mask id="mask36_20700_899" style="mask-type:luminance" maskUnits="userSpaceOnUse" x="0" y="0" width="45" height="48">
<path d="M44.167 0.157719L0.169952 0.157715L0.169948 47.4362L44.167 47.4362L44.167 0.157719Z" fill="white"/>
</mask>
<g mask="url(#mask36_20700_899)">
<path fill-rule="evenodd" clip-rule="evenodd" d="M10.3135 29.5316C10.3931 30.1496 11.0462 33.1189 11.8459 34.4092C13.2859 36.7349 13.7893 36.6488 14.2066 36.9929C14.624 37.3402 13.1617 35.4605 12.5691 34.2531C11.9765 33.0456 11.4604 31.2615 11.3011 29.624C11.1832 28.4102 10.2306 28.9135 10.3135 29.5316Z" fill="#D9FFFD"/>
</g>
<mask id="mask37_20700_899" style="mask-type:luminance" maskUnits="userSpaceOnUse" x="0" y="0" width="45" height="48">
<path d="M44.167 0.157719L0.169952 0.157715L0.169948 47.4362L44.167 47.4362L44.167 0.157719Z" fill="white"/>
</mask>
<g mask="url(#mask37_20700_899)">
<path d="M10.3135 29.5316C10.3931 30.1496 11.0462 33.1189 11.8459 34.4092C13.2859 36.7349 13.7893 36.6488 14.2066 36.9929C14.624 37.3402 13.1617 35.4605 12.5691 34.2531C11.9765 33.0456 11.4604 31.2615 11.3011 29.624C11.1832 28.4102 10.2306 28.9135 10.3135 29.5316Z" stroke="#13161E" stroke-width="0.382306" stroke-miterlimit="1.5" stroke-linecap="round" stroke-linejoin="round"/>
</g>
<mask id="mask38_20700_899" style="mask-type:luminance" maskUnits="userSpaceOnUse" x="0" y="0" width="45" height="48">
<path d="M44.167 0.157719L0.169952 0.157715L0.169948 47.4362L44.167 47.4362L44.167 0.157719Z" fill="white"/>
</mask>
<g mask="url(#mask38_20700_899)">
<path fill-rule="evenodd" clip-rule="evenodd" d="M9.2304 26.6038C9.07429 27.5978 9.07429 31.2106 11.6485 29.35C14.9395 26.9701 17.4946 24.7273 17.9151 23.8066C18.3356 22.8858 18.2592 22.752 18.0107 21.4076C17.7335 19.9007 17.5615 19.3941 17.0613 19.203C16.4847 18.98 15.7009 19.3877 14.3915 20.2702C12.8942 21.2802 10.715 23.7428 10.3391 24.2239C9.53306 25.2466 9.32916 25.9698 9.2304 26.6038Z" fill="#D9FFFD"/>
</g>
<mask id="mask39_20700_899" style="mask-type:luminance" maskUnits="userSpaceOnUse" x="0" y="0" width="45" height="48">
<path d="M44.167 0.157719L0.169952 0.157715L0.169948 47.4362L44.167 47.4362L44.167 0.157719Z" fill="white"/>
</mask>
<g mask="url(#mask39_20700_899)">
<path d="M9.2304 26.6038C9.07429 27.5978 9.07429 31.2106 11.6485 29.35C14.9395 26.9701 17.4946 24.7273 17.9151 23.8066C18.3356 22.8858 18.2592 22.752 18.0107 21.4076C17.7335 19.9007 17.5615 19.3941 17.0613 19.203C16.4847 18.98 15.7009 19.3877 14.3915 20.2702C12.8942 21.2802 10.715 23.7428 10.3391 24.2239C9.53306 25.2466 9.32916 25.9698 9.2304 26.6038Z" stroke="#13161E" stroke-width="0.381509" stroke-miterlimit="1.5" stroke-linecap="round" stroke-linejoin="round"/>
</g>
<mask id="mask40_20700_899" style="mask-type:luminance" maskUnits="userSpaceOnUse" x="0" y="0" width="45" height="48">
<path d="M44.167 0.157719L0.169952 0.157715L0.169948 47.4362L44.167 47.4362L44.167 0.157719Z" fill="white"/>
</mask>
<g mask="url(#mask40_20700_899)">
<path fill-rule="evenodd" clip-rule="evenodd" d="M9.89639 28.6215C10.4826 28.4208 10.7215 28.4463 11.8175 27.653C12.9134 26.8597 14.997 25.4707 15.7297 24.7157C16.4625 23.9638 16.8671 23.2533 16.8862 22.6416C16.9053 22.03 16.934 21.2016 16.8066 20.8257C16.6791 20.4498 16.4051 20.2427 16.4051 20.2427C16.4051 20.2427 15.1754 20.8225 13.2925 22.3581C10.3042 24.7985 10.0238 25.0757 9.6893 25.9677C9.36753 26.8279 9.31018 28.8223 9.89639 28.6215Z" fill="#ACC0BF"/>
</g>
<mask id="mask41_20700_899" style="mask-type:luminance" maskUnits="userSpaceOnUse" x="0" y="0" width="45" height="48">
<path d="M44.167 0.157719L0.169952 0.157715L0.169948 47.4362L44.167 47.4362L44.167 0.157719Z" fill="white"/>
</mask>
<g mask="url(#mask41_20700_899)">
<path d="M16.2741 19.3334C16.2741 19.3334 16.4908 19.8559 16.8125 20.8244C17.1216 21.7483 17.2809 23.2552 15.9524 24.4563C14.232 26.011 11.7789 27.8174 11.113 28.1168" stroke="#13161E" stroke-width="0.381509" stroke-miterlimit="1.5" stroke-linecap="round" stroke-linejoin="round"/>
</g>
<mask id="mask42_20700_899" style="mask-type:luminance" maskUnits="userSpaceOnUse" x="0" y="0" width="45" height="48">
<path d="M44.167 0.157719L0.169952 0.157715L0.169948 47.4362L44.167 47.4362L44.167 0.157719Z" fill="white"/>
</mask>
<g mask="url(#mask42_20700_899)">
<path fill-rule="evenodd" clip-rule="evenodd" d="M21.7848 34.3286C21.7529 34.8384 22.4124 37.4412 23.6135 39.4643C24.8145 41.4873 27.4524 43.8576 28.6726 44.1985C29.8928 44.5394 31.2277 44.2272 30.3452 41.9493C29.4595 39.6714 28.9179 37.6483 28.9084 37.3903C28.8988 37.1322 27.8794 36.4695 25.4804 35.3863C23.0846 34.3063 21.8198 33.8189 21.7848 34.3286Z" fill="#E64F42"/>
</g>
<mask id="mask43_20700_899" style="mask-type:luminance" maskUnits="userSpaceOnUse" x="0" y="0" width="45" height="48">
<path d="M44.167 0.157719L0.169952 0.157715L0.169948 47.4362L44.167 47.4362L44.167 0.157719Z" fill="white"/>
</mask>
<g mask="url(#mask43_20700_899)">
<path d="M21.7848 34.3286C21.7529 34.8384 22.4124 37.4412 23.6135 39.4643C24.8145 41.4873 27.4524 43.8576 28.6726 44.1985C29.8928 44.5394 31.2277 44.2272 30.3452 41.9493C29.4595 39.6713 28.9179 37.6483 28.9084 37.3903C28.8988 37.1322 27.8794 36.4695 25.4804 35.3863C23.0846 34.3063 21.8198 33.8189 21.7848 34.3286Z" stroke="#13161E" stroke-width="0.382306" stroke-miterlimit="1.5" stroke-linecap="round" stroke-linejoin="round"/>
</g>
<mask id="mask44_20700_899" style="mask-type:luminance" maskUnits="userSpaceOnUse" x="0" y="0" width="45" height="48">
<path d="M44.167 0.157719L0.169952 0.157715L0.169948 47.4362L44.167 47.4362L44.167 0.157719Z" fill="white"/>
</mask>
<g mask="url(#mask44_20700_899)">
<path fill-rule="evenodd" clip-rule="evenodd" d="M26.6828 42.2244C28.0973 43.3745 30.1713 44.8878 30.1777 43.6581C30.1809 43.0209 29.8241 42.4411 29.0467 41.6796C28.2662 40.9214 27.0906 39.1405 26.5299 38.223C25.9723 37.3054 25.6123 36.7256 25.5486 35.9897C25.5199 35.6647 22.4615 34.4987 22.4615 34.4987C22.4615 34.4987 21.9517 34.2215 22.0155 34.6771C22.0728 35.0817 22.5443 37.0219 23.1656 38.0254C23.9397 39.2839 25.2682 41.0743 26.6828 42.2244Z" fill="#B84940"/>
</g>
<mask id="mask45_20700_899" style="mask-type:luminance" maskUnits="userSpaceOnUse" x="0" y="0" width="45" height="48">
<path d="M44.167 0.157719L0.169952 0.157715L0.169948 47.4362L44.167 47.4362L44.167 0.157719Z" fill="white"/>
</mask>
<g mask="url(#mask45_20700_899)">
<path d="M29.3978 44.315C29.9649 44.2163 30.7327 43.6364 29.5635 42.2824C28.3974 40.9284 26.9128 39.3897 25.9284 37.0289" stroke="#13161E" stroke-width="0.382306" stroke-miterlimit="1.5" stroke-linecap="round" stroke-linejoin="round"/>
</g>
<mask id="mask46_20700_899" style="mask-type:luminance" maskUnits="userSpaceOnUse" x="0" y="0" width="45" height="48">
<path d="M44.167 0.157719L0.169952 0.157715L0.169948 47.4362L44.167 47.4362L44.167 0.157719Z" fill="white"/>
</mask>
<g mask="url(#mask46_20700_899)">
<path d="M29.3978 44.315C29.9649 44.2163 30.7327 43.6364 29.5635 42.2824C28.3974 40.9284 26.9128 39.3897 25.9284 37.0289" stroke="#13161E" stroke-width="0.382306" stroke-miterlimit="1.5" stroke-linecap="round" stroke-linejoin="round"/>
</g>
<mask id="mask47_20700_899" style="mask-type:luminance" maskUnits="userSpaceOnUse" x="0" y="0" width="45" height="48">
<path d="M44.167 0.157719L0.169952 0.157715L0.169948 47.4362L44.167 47.4362L44.167 0.157719Z" fill="white"/>
</mask>
<g mask="url(#mask47_20700_899)">
<path fill-rule="evenodd" clip-rule="evenodd" d="M16.137 29.9934C15.5413 30.9173 15.4075 32.5963 15.0634 34.6799C14.7958 36.2951 13.3398 38.1365 13.5023 38.6973C13.6648 39.258 15.2418 39.5351 17.7682 36.7698C19.2687 35.1259 21.0656 30.8473 20.798 30.2993C20.5304 29.7513 19.5491 29.2129 18.2206 29.0982C16.8921 28.9803 16.5257 29.3913 16.137 29.9934Z" fill="#FF6659"/>
</g>
<mask id="mask48_20700_899" style="mask-type:luminance" maskUnits="userSpaceOnUse" x="0" y="0" width="45" height="48">
<path d="M44.167 0.157719L0.169952 0.157715L0.169948 47.4362L44.167 47.4362L44.167 0.157719Z" fill="white"/>
</mask>
<g mask="url(#mask48_20700_899)">
<path d="M16.137 29.9934C15.5413 30.9173 15.4075 32.5963 15.0634 34.6799C14.7958 36.2951 13.3398 38.1365 13.5023 38.6973C13.6648 39.258 15.2418 39.5351 17.7682 36.7698C19.2687 35.1259 21.0656 30.8473 20.798 30.2993C20.5304 29.7513 19.5491 29.2129 18.2206 29.0982C16.8921 28.9803 16.5257 29.3913 16.137 29.9934Z" stroke="#13161E" stroke-width="0.382306" stroke-miterlimit="1.5" stroke-linecap="round" stroke-linejoin="round"/>
</g>
<mask id="mask49_20700_899" style="mask-type:luminance" maskUnits="userSpaceOnUse" x="0" y="0" width="45" height="48">
<path d="M44.167 0.157719L0.169952 0.157715L0.169948 47.4362L44.167 47.4362L44.167 0.157719Z" fill="white"/>
</mask>
<g mask="url(#mask49_20700_899)">
<path fill-rule="evenodd" clip-rule="evenodd" d="M19.0528 29.548C19.502 29.8506 18.9413 31.9151 17.909 33.3169C15.5037 36.5856 14.3249 36.6111 13.8407 38.2072C13.4902 39.3637 16.4053 37.3948 17.3005 36.3721C18.1766 35.375 19.2567 33.3933 19.983 32.3229C20.7126 31.2556 20.5661 30.9243 20.6107 30.456C20.6585 29.9876 18.6099 29.2485 19.0528 29.548Z" fill="#E64F42"/>
</g>
<mask id="mask50_20700_899" style="mask-type:luminance" maskUnits="userSpaceOnUse" x="0" y="0" width="45" height="48">
<path d="M44.167 0.157719L0.169952 0.157715L0.169948 47.4362L44.167 47.4362L44.167 0.157719Z" fill="white"/>
</mask>
<g mask="url(#mask50_20700_899)">
<path d="M14.7842 38.2731C16.2656 38.1329 19.2922 33.9084 20.8278 30.3657" stroke="#13161E" stroke-width="0.382306" stroke-miterlimit="1.5" stroke-linecap="round" stroke-linejoin="round"/>
</g>
</svg>
